<?xml version="1.0" encoding="utf-8"?>
<!-- Generator: Adobe Illustrator 19.2.1, SVG Export Plug-In . SVG Version: 6.00 Build 0)  -->
<svg version="1.1" id="Capa_1" xmlns="http://www.w3.org/2000/svg" xmlns:xlink="http://www.w3.org/1999/xlink" x="0px" y="0px"
	 viewBox="0 0 130 50" style="enable-background:new 0 0 130 50;" xml:space="preserve">
<style type="text/css">
	.st0{fill:#FFFFFF;}
</style>
<g>
	<path class="st0" d="M39.3,12.8c3.1,0,4.5,1.3,4.5,5.1v13.8c0,4.8-4.8,7.1-9.6,7.1c-5,0-9.3-2.3-9.3-7.1V12.8
		c2.1,0,4.4,0.6,4.4,4.5v13.3c0,2.6,1.9,3.9,5,3.9c2.9,0,5-1.3,5-3.9L39.3,12.8z M49.9,38.4h4.5v-16c0-3.4,1.8-5.4,5.3-5.4H61
		c3.9,0,4.5-2,4.5-4.2h-6.2c-5.5,0-9.4,3.3-9.4,9.8V38.4L49.9,38.4z M8.9,22.7c-1.5-0.4-2.9-1.1-2.9-3s1.2-2.9,3.6-2.9h4.9
		c2.1,0,4.8-0.7,4.8-4.2H10c-5.6,0-8.9,2.9-8.9,7c0,3.8,2.4,5.9,6.8,7.1l4.8,1.3c1.9,0.5,2.6,1.8,2.6,3.1c0,1.9-1.3,3.1-4.2,3.1H2
		v4.1h9.3c5.6,0,8.9-3.1,8.9-7c0-4-1.6-6-5.8-7.1L8.9,22.7z M88.3,16.5L88.3,16.5v22c-2.9,0-4.2-0.8-4.5-3.4c0,0-2,3.9-7.6,3.9
		c-6.9,0-10.9-5.5-10.7-13.2c0.2-8.6,5.8-12.9,11.8-13h1.2l0,0h9.9v3.7H88.3z M83.5,16.9h-5.2l0,0c-0.3,0-0.5,0-0.8,0
		c-3.9,0-6.9,2.6-7.1,8.8c-0.2,6.4,2.6,9.1,6.7,9.1c4.4,0,6.4-3.4,6.4-6.9V16.9L83.5,16.9z"/>
	<g>
		<path class="st0" d="M112.5,40.4C112.5,40.4,112.6,40.4,112.5,40.4c-0.4,0.7-1.2,1.5-2.2,2.2c-1.1,0.7-2.2,1.4-3.5,2
			s-2.5,1.2-3.7,1.5c-1.4,0.3-2.6,0.5-3.6,0.3c-0.8-0.1-1.5-0.3-1.9-0.7c0,0,0,0,0-0.1c0,0,0-0.1,0.1-0.1c3.1-0.5,5.9-1.3,8.6-2.2
			C108.8,42.5,110.9,41.5,112.5,40.4"/>
		<path class="st0" d="M112.3,38.9c-1.7,1-5.1,2.4-8.1,3.3c-3.6,1-6.4,1.5-8.3,1.3c-1.7-0.3-2.5-1.1-2.7-1.3c0,0-0.1-0.1,0-0.1
			c0,0,0-0.1,0.1-0.1h0.6c1.4-0.1,3.9-0.2,7-0.6C104.3,40.8,109.8,39.8,112.3,38.9C112.3,38.7,112.4,38.9,112.3,38.9"/>
		<path class="st0" d="M112,43.3C112,43.3,112.1,43.3,112,43.3c-0.5,1.6-1.2,2.7-2.6,3.4c-2.4,1.2-3.7,0.5-3.9,0.4l-0.1-0.1
			c0,0,0-0.1,0.1-0.1C106.6,46.7,109.8,45.5,112,43.3L112,43.3"/>
		<path class="st0" d="M128,20.5C128,20.5,128.1,20.5,128,20.5c0.1,0.1,0,0.2,0,0.2c-0.7-0.2-2.2-0.6-4.2-1.2
			c-4.4-1.3-21.2-5.7-21.4-5.8h-0.1c-1-0.3-1.8-0.8-2.4-1.5c-0.2-0.2-0.3-0.4-0.5-0.6c-0.5-0.8-0.6-2.1-0.7-2.3c0,0,0,0,0-0.1
			c0,0,0.1,0,0.2,0l2.7,1.1C108,12.7,125.2,19.3,128,20.5"/>
		<path class="st0" d="M125.2,17.8c0,0.1,0,0.1-0.1,0.1c-1-0.5-3.3-1.6-5.5-2.6c-1.9-1-14.8-7.1-15.7-7.5l-1.6-0.7
			c-0.2-0.1-0.4-0.2-0.6-0.3c-0.6-0.3-1-0.6-1.3-1.1C100,5.4,99.8,5,99.7,4.5c-0.3-1-0.3-2.1-0.3-2.3V2.1h0.1l1.6,1l0.8,0.5l4.8,3
			C113.6,10.5,122.7,16.4,125.2,17.8"/>
		<path class="st0" d="M129.9,22.3C130,22.3,130,22.4,129.9,22.3c0.1,0.1,0,0.2,0,0.2c-2.5-0.2-25.5-1.8-25.5-1.8
			c-0.2,0-0.3,0-0.6-0.1c-1.8-0.6-2.9-2-3.3-3.4v-0.1c0,0,0.1-0.1,0.1,0C100.7,16.9,127.7,21.9,129.9,22.3"/>
		<path class="st0" d="M128.9,23.9L128.9,23.9c0.1,0.1,0,0.1,0,0.2c-1,0.1-18.4,2.5-18.5,2.5s-0.2,0-0.3,0s-0.2,0-0.3,0
			c-0.8-0.1-1.6-0.5-2.3-1.3c-0.3-0.4-0.7-1-0.8-1.3v0h0.1c0,0,5.8,0,9.5,0c2.7,0,5.7,0,8.1,0C126.3,23.9,128,23.9,128.9,23.9"/>
		<path class="st0" d="M127.5,25.5C127.6,25.5,127.6,25.5,127.5,25.5c0.1,0.1,0.1,0.1,0,0.2c-0.5,0.3-13.1,5.5-13.3,5.6
			c-0.6,0.2-1.5,0.3-2-0.6c-0.2-0.4-0.4-0.7-0.5-0.8c0,0-0.2-0.2,0.2-0.3c0,0,3.6-1,6.7-1.7C122.3,26.9,126.4,25.9,127.5,25.5"/>
		<path class="st0" d="M122,34.3C122,34.3,122.1,34.3,122,34.3c-1.3,1.5-5.7,6.4-7.7,8.5c-0.2,0.2-0.3,0.1-0.2-0.1
			c0,0,0.4-1,0.5-1.7c0.1-0.4,0.2-0.8,0.4-1C117.7,37.8,120.2,35.6,122,34.3L122,34.3z"/>
		<path class="st0" d="M126.1,28.1c0,0,0.1,0,0,0.2c-1.3,1-6.9,5.7-9.8,8.1l-0.1,0.1c-0.8,0.6-1.5,0.8-1.6-0.6
			c0-0.3-0.1-0.6-0.1-0.6c0-0.3,0-0.3,0.1-0.3c1-0.6,2.9-1.6,4.3-2.5C121.8,30.7,124.9,28.8,126.1,28.1"/>
	</g>
</g>
</svg>
